<?xml version="1.0" encoding="UTF-8"?>
<!DOCTYPE svg PUBLIC "-//W3C//DTD SVG 1.1//EN" "http://www.w3.org/Graphics/SVG/1.1/DTD/svg11.dtd">
<svg version="1.1" id="bg" xmlns="http://www.w3.org/2000/svg" xmlns:xlink="http://www.w3.org/1999/xlink" x="0px" y="0px" width="2690px" height="1220px" viewBox="1220.5 645.5 2690 1220" enable-background="new 1220.5 645.5 2690 1220" xml:space="preserve">
<polygon opacity="0.35" fill="#184666" enable-background="new    " points="3752.51,645.5 3631.5,715.711 3622.83,781.211  3318.66,959.502 3148.5,1059.236 2784.83,998.758 2729.46,1018.643 2507.641,1098.295 2496.1,1102.439 2496.061,1102.449  2495.67,1102.588 2495.58,1102.623 2373.5,1146.599 2329.279,1146.426 2329.029,1146.426 2329.279,1146.01 2352.561,1127.912  2975.25,645.5 "/>
<polygon opacity="0.35" fill="#234A77" enable-background="new    " points="3911.5,884.191 3648.668,966.369 3627.584,989.453  2621.542,1248.572 2632.5,1281.467 3070.5,1281.467 3138.668,1316.671 3911.5,1283.499 "/>
<polygon opacity="0.15" fill="#234A77" enable-background="new    " points="3911.5,1283.498 3911.5,1376.112 3149.17,1369.567  3063.83,1326.481 2671.21,1309.053 2634.05,1281.467 3070.5,1281.467 3138.67,1316.671 "/>
<polygon opacity="0.15" fill="#234A77" enable-background="new    " points="2805.87,645.5 2789.391,660.09 2560.04,863.207  2364.77,684.063 2364.32,683.658 2389.96,645.5 "/>
<polygon opacity="0.15" fill="#234A77" enable-background="new    " points="3388.87,1050.938 2901.5,1176.469 2729.46,1018.643  2784.83,998.758 3148.5,1059.236 3318.66,959.502 "/>
<polygon opacity="0.15" fill="#234A77" enable-background="new    " points="3861.55,1666.498 3809.05,1700.836 3777.76,1678.236  3420.57,1420.227 3131.08,1387.077 3015.96,1281.467 3070.5,1281.467 3138.67,1316.671 3578.43,1297.8 "/>
<polygon opacity="0.2" fill="#184666" enable-background="new    " points="2643.1,1200.373 2352.62,1247.163 2232.63,1208.971  2088.26,1257.633 2001.641,1286.835 1854.65,1605.35 1676.16,1678.768 1628.16,1653.803 2018.141,785.297 2042.141,731.846  2140.58,646.654 2141.91,645.5 2389.391,645.5 2388.62,646.654 2215.471,904.607 2210.07,912.652 2209.98,912.791 2209.71,913.195  2209.74,913.219 2209.98,913.379 2360.17,1012.896 2377.811,1024.586 2377.75,1024.922 2377.689,1025.233 2377.68,1025.233  2262.57,1127.195 2242.18,1145.271 2242.471,1145.271 2329.279,1146.148 2373.5,1146.599 2495.58,1102.691 2522.971,1120.802  2642.58,1200.044 "/>
<polygon opacity="0.1" fill="#234A77" enable-background="new    " points="2643.1,1199.946 2642.58,1200.025 2352.62,1246.968  2232.63,1208.915 2088.26,1257.633 2001.641,1286.868 1854.65,1605.499 1676.16,1679.115 1628.16,1654.518 1600.5,1556.457  2014.62,646.654 2390.02,646.654 2209.98,913.379 2209.71,913.782 2377.689,1024.703 2242.17,1144.717 2373.5,1146.459  2495.58,1102.623 2495.67,1102.588 "/>
<polygon opacity="0.15" fill="#234A77" enable-background="new    " points="1839.09,645.5 1837.21,665.236 1827.609,766.241  1822.5,819.98 1609.17,886.44 1455.18,645.5 "/>
<polygon opacity="0.3" fill="#234A77" enable-background="new    " points="1902.92,889.544 1768.391,1185.576 1757.84,1168.989  1664.859,1022.799 1593,909.813 1586.609,880.531 1436.42,645.5 1455.189,645.5 1609.17,886.44 1822.5,819.98 1827.609,766.241  1892.54,872.544 "/>
<polygon opacity="0.1" fill="#234A77" enable-background="new    " points="1741.37,1245.04 1725.084,1280.322 1219.5,1095.256  1219.5,798.957 1612.76,941.67 1664.609,1022.799 1659.375,1117.57 "/>
<polygon opacity="0.06" fill="#234A77" enable-background="new    " points="1220.5,1223.688 1373.166,1280.322 1519.491,1204.938  1220,1095.256 "/>
<polygon opacity="0.1" fill="#234A77" enable-background="new    " points="1600.5,1555.014 1628.16,1653.803 1220,1774.313  1220.5,1401.112 1666.7,1409.342 "/>
<polygon opacity="0.2" fill="#234A77" enable-background="new    " points="1628.16,1653.803 1675.66,1678.756 1219.5,1845.978  1219.5,1223.688 1372.67,1280.324 1519.225,1204.932 1706.447,1273.458 1713.059,1275.87 1725.254,1280.324 1666.792,1409.007  1657.986,1428.397 1600.469,1555.014 "/>
<g opacity="0.35">
	<polygon fill="#184666" points="2901.5,1176.469 2689.83,1230.982 2496.1,1102.439 2729.46,1018.643  "/>
	<polygon fill="#184666" points="3777.76,1678.236 3671.061,1662.459 3243.822,1424.285 2924.1,1386.43 2765.91,1281.467   3015.96,1281.467 3131.08,1387.077 3420.57,1420.227  "/>
	<polygon fill="#184666" points="2560.12,863.645 2377.98,1024.807 2209.98,913.489 2209.71,913.25 2364.32,683.904   2560.04,863.645  "/>
</g>
<polygon opacity="0.2" fill="#234A77" enable-background="new    " points="1741.37,1244.947 1659.38,1117.523 1664.609,1022.775  1768.392,1185.98 "/>
<polygon opacity="0.05" fill="#234A77" enable-background="new    " points="1995.7,645.5 2014.1,645.5 1966.21,750.832  1768.391,1185.979 1687.46,1364.026 1666.74,1409.584 1600.535,1555.188 1600.5,1555.233 1600.5,1555.245 1600.495,1555.279  1600.492,1555.303 1600.696,1556.019 1628.158,1653.803 1627.969,1653.849 1618.17,1656.203 1586.5,1546.069 1648.779,1409.007  1709.635,1274.727 1709.5,1274.692 1709.5,1274.681 1730.615,1228.559 1730.702,1228.548 1730.751,1228.513 1757.711,1169.221  1757.83,1168.989 1892.535,872.544 1952.098,741.473 "/>
<polygon opacity="0.1" fill="#234A77" enable-background="new    " points="2242.391,1144.982 2242.5,1145.121 2242.5,1145.271  2242.18,1145.271 2242.3,1145.145 "/>
<polygon display="none" opacity="0.1" fill="#234A77" enable-background="new    " points="1030.59,-644 780.91,-523.44  764,-467.75 475.4,-332.19 283.7,-242.15 281,-240.79 279.33,-241 279.32,-241 -85.67,-304.85 -118.18,-296.14 -342.88,-235.61  -355.01,-232.36 -355.04,-232.35 -355.37,-232.27 -355.53,-232.23 -500,-193.3 -628.33,-202.65 -635.88,-211 -549.66,-210.06  -549.22,-210.48 -525.94,-226.1 97.95,-644 "/>
<polygon opacity="0.04" fill="#FFFFFF" enable-background="new    " points="2975.25,645.5 2352.561,1127.842 2329.279,1145.871  2328.84,1146.362 2242.391,1145.271 2242.17,1145.271 2242.3,1145.012 2242.471,1144.789 2262.85,1126.689 2377.87,1024.756  2559.859,863.492 2805.87,645.504 "/>
</svg>